<?xml version="1.0" encoding="UTF-8" standalone="no"?>
<!DOCTYPE svg PUBLIC "-//W3C//DTD SVG 1.1//EN" "http://www.w3.org/Graphics/SVG/1.1/DTD/svg11.dtd">
<svg width="100%" height="100%" viewBox="0 0 643 422" version="1.1" xmlns="http://www.w3.org/2000/svg" xmlns:xlink="http://www.w3.org/1999/xlink" xml:space="preserve" xmlns:serif="http://www.serif.com/" style="fill-rule:evenodd;clip-rule:evenodd;stroke-linejoin:round;stroke-miterlimit:2;">
    <g transform="matrix(1,0,0,1,-451.334,-337.866)">
        <g transform="matrix(96,0,0,96,451.872,725.207)">
            <path d="M0.181,-0.352L0.529,-0.352C0.554,-0.352 0.568,-0.371 0.568,-0.394C0.568,-0.419 0.555,-0.437 0.529,-0.437L0.181,-0.437L0.181,-0.653C0.181,-0.673 0.193,-0.685 0.212,-0.685L0.585,-0.685C0.612,-0.685 0.626,-0.704 0.626,-0.729C0.626,-0.754 0.612,-0.772 0.585,-0.772L0.188,-0.772C0.117,-0.772 0.086,-0.742 0.086,-0.665L0.086,-0.03C0.086,-0.001 0.106,0.013 0.133,0.013C0.161,0.013 0.181,-0.001 0.181,-0.029L0.181,-0.352Z" style="fill:white;fill-rule:nonzero;"/>
        </g>
        <g transform="matrix(96,0,0,96,514.56,725.207)">
            <path d="M0.07,-0.027C0.07,0 0.088,0.013 0.116,0.013C0.143,0.013 0.161,0 0.161,-0.027L0.161,-0.738C0.161,-0.765 0.143,-0.778 0.116,-0.778C0.088,-0.778 0.07,-0.765 0.07,-0.738L0.07,-0.027Z" style="fill:white;fill-rule:nonzero;"/>
        </g>
        <g transform="matrix(96,0,0,96,536.928,725.207)">
            <path d="M0.307,-0.194C0.296,-0.165 0.282,-0.127 0.274,-0.096C0.265,-0.127 0.256,-0.164 0.244,-0.196L0.118,-0.528C0.111,-0.546 0.096,-0.553 0.08,-0.553C0.073,-0.553 0.066,-0.552 0.059,-0.55C0.041,-0.544 0.026,-0.529 0.026,-0.511C0.026,-0.506 0.027,-0.5 0.029,-0.495L0.231,-0.005L0.203,0.065C0.185,0.111 0.164,0.149 0.121,0.149C0.103,0.149 0.085,0.142 0.071,0.136C0.064,0.133 0.058,0.132 0.052,0.132C0.035,0.132 0.022,0.143 0.015,0.16C0.012,0.168 0.01,0.175 0.01,0.183C0.01,0.198 0.018,0.212 0.038,0.219C0.061,0.228 0.085,0.232 0.11,0.232C0.208,0.232 0.249,0.175 0.284,0.089L0.52,-0.496C0.522,-0.502 0.523,-0.508 0.523,-0.513C0.523,-0.531 0.509,-0.545 0.49,-0.55C0.484,-0.551 0.478,-0.552 0.472,-0.552C0.455,-0.552 0.44,-0.545 0.433,-0.526L0.307,-0.194Z" style="fill:white;fill-rule:nonzero;"/>
        </g>
        <g transform="matrix(96,0,0,96,589.824,725.207)">
            <path d="M0.071,-0.027C0.071,0 0.088,0.013 0.116,0.013C0.143,0.013 0.162,0 0.162,-0.027L0.162,-0.514C0.162,-0.54 0.143,-0.553 0.116,-0.553C0.088,-0.553 0.071,-0.54 0.071,-0.514L0.071,-0.027ZM0.117,-0.779C0.079,-0.779 0.049,-0.75 0.049,-0.712C0.049,-0.673 0.079,-0.644 0.117,-0.644C0.154,-0.644 0.184,-0.673 0.184,-0.712C0.184,-0.75 0.154,-0.779 0.117,-0.779Z" style="fill:white;fill-rule:nonzero;"/>
        </g>
        <g transform="matrix(96,0,0,96,612.288,725.207)">
            <path d="M0.531,-0.366C0.531,-0.489 0.467,-0.561 0.348,-0.561C0.253,-0.561 0.193,-0.516 0.158,-0.445C0.159,-0.464 0.162,-0.474 0.162,-0.487L0.162,-0.514C0.162,-0.54 0.144,-0.553 0.118,-0.553C0.09,-0.553 0.071,-0.54 0.071,-0.514L0.071,-0.027C0.071,0 0.089,0.013 0.117,0.013C0.143,0.013 0.162,0 0.162,-0.027L0.162,-0.307C0.162,-0.346 0.172,-0.375 0.197,-0.409C0.231,-0.456 0.276,-0.48 0.33,-0.48C0.405,-0.48 0.439,-0.432 0.439,-0.347L0.439,-0.027C0.439,0 0.458,0.013 0.485,0.013C0.511,0.013 0.531,0 0.531,-0.027L0.531,-0.366Z" style="fill:white;fill-rule:nonzero;"/>
        </g>
        <g transform="matrix(96,0,0,96,669.888,725.207)">
            <path d="M0.46,-0.487C0.46,-0.476 0.463,-0.457 0.464,-0.446C0.436,-0.51 0.379,-0.56 0.288,-0.56C0.134,-0.56 0.045,-0.444 0.045,-0.272C0.045,-0.105 0.144,0.005 0.286,0.005C0.374,0.005 0.431,-0.039 0.464,-0.102C0.462,-0.088 0.46,-0.066 0.46,-0.054C0.459,0.094 0.414,0.157 0.289,0.157C0.228,0.157 0.184,0.136 0.147,0.093C0.139,0.084 0.129,0.08 0.118,0.08C0.108,0.08 0.097,0.084 0.089,0.09C0.077,0.099 0.07,0.112 0.07,0.125C0.07,0.133 0.073,0.14 0.078,0.147C0.116,0.196 0.185,0.232 0.293,0.232C0.425,0.232 0.546,0.18 0.546,-0.05L0.546,-0.513C0.546,-0.54 0.53,-0.553 0.503,-0.553C0.474,-0.553 0.46,-0.538 0.46,-0.517L0.46,-0.487ZM0.299,-0.484C0.401,-0.484 0.462,-0.398 0.462,-0.279C0.462,-0.155 0.4,-0.068 0.298,-0.068C0.205,-0.068 0.137,-0.145 0.137,-0.272C0.137,-0.401 0.197,-0.484 0.299,-0.484Z" style="fill:white;fill-rule:nonzero;"/>
        </g>
        <g transform="matrix(96,0,0,96,761.184,725.207)">
            <path d="M0.609,-0.446L0.183,-0.446L0.183,-0.737C0.183,-0.765 0.162,-0.778 0.135,-0.778C0.107,-0.778 0.087,-0.765 0.087,-0.737L0.087,-0.028C0.087,-0.001 0.107,0.013 0.135,0.013C0.162,0.013 0.183,-0.001 0.183,-0.028L0.183,-0.359L0.609,-0.359L0.609,-0.028C0.609,-0.001 0.63,0.013 0.659,0.013C0.685,0.013 0.705,-0.001 0.705,-0.028L0.705,-0.737C0.705,-0.765 0.685,-0.778 0.659,-0.778C0.63,-0.778 0.609,-0.765 0.609,-0.737L0.609,-0.446Z" style="fill:white;fill-rule:nonzero;"/>
        </g>
        <g transform="matrix(96,0,0,96,837.312,725.207)">
            <path d="M0.071,-0.027C0.071,0 0.088,0.013 0.116,0.013C0.143,0.013 0.162,0 0.162,-0.027L0.162,-0.514C0.162,-0.54 0.143,-0.553 0.116,-0.553C0.088,-0.553 0.071,-0.54 0.071,-0.514L0.071,-0.027ZM0.117,-0.779C0.079,-0.779 0.049,-0.75 0.049,-0.712C0.049,-0.673 0.079,-0.644 0.117,-0.644C0.154,-0.644 0.184,-0.673 0.184,-0.712C0.184,-0.75 0.154,-0.779 0.117,-0.779Z" style="fill:white;fill-rule:nonzero;"/>
        </g>
        <g transform="matrix(96,0,0,96,859.776,725.207)">
            <path d="M0.16,-0.036C0.16,-0.054 0.159,-0.075 0.155,-0.094C0.189,-0.024 0.246,0.022 0.339,0.022C0.488,0.022 0.578,-0.096 0.578,-0.274C0.578,-0.452 0.493,-0.561 0.343,-0.561C0.246,-0.561 0.191,-0.514 0.156,-0.443C0.159,-0.46 0.16,-0.484 0.16,-0.498L0.16,-0.516C0.16,-0.541 0.141,-0.553 0.116,-0.553C0.088,-0.553 0.071,-0.54 0.071,-0.514L0.071,0.184C0.071,0.209 0.088,0.223 0.116,0.223C0.143,0.223 0.16,0.209 0.16,0.184L0.16,-0.036ZM0.33,-0.483C0.431,-0.483 0.486,-0.402 0.486,-0.272C0.486,-0.143 0.429,-0.057 0.328,-0.057C0.223,-0.057 0.158,-0.147 0.158,-0.271C0.158,-0.394 0.22,-0.483 0.33,-0.483Z" style="fill:white;fill-rule:nonzero;"/>
        </g>
        <g transform="matrix(96,0,0,96,919.68,725.207)">
            <path d="M0.16,-0.036C0.16,-0.054 0.159,-0.075 0.155,-0.094C0.189,-0.024 0.246,0.022 0.339,0.022C0.488,0.022 0.578,-0.096 0.578,-0.274C0.578,-0.452 0.493,-0.561 0.343,-0.561C0.246,-0.561 0.191,-0.514 0.156,-0.443C0.159,-0.46 0.16,-0.484 0.16,-0.498L0.16,-0.516C0.16,-0.541 0.141,-0.553 0.116,-0.553C0.088,-0.553 0.071,-0.54 0.071,-0.514L0.071,0.184C0.071,0.209 0.088,0.223 0.116,0.223C0.143,0.223 0.16,0.209 0.16,0.184L0.16,-0.036ZM0.33,-0.483C0.431,-0.483 0.486,-0.402 0.486,-0.272C0.486,-0.143 0.429,-0.057 0.328,-0.057C0.223,-0.057 0.158,-0.147 0.158,-0.271C0.158,-0.394 0.22,-0.483 0.33,-0.483Z" style="fill:white;fill-rule:nonzero;"/>
        </g>
        <g transform="matrix(96,0,0,96,979.584,725.207)">
            <path d="M0.304,-0.561C0.142,-0.561 0.045,-0.444 0.045,-0.271C0.045,-0.093 0.141,0.023 0.306,0.023C0.462,0.023 0.558,-0.097 0.558,-0.271C0.558,-0.445 0.464,-0.561 0.304,-0.561ZM0.307,-0.484C0.409,-0.484 0.466,-0.398 0.466,-0.272C0.466,-0.139 0.409,-0.054 0.3,-0.054C0.197,-0.054 0.137,-0.141 0.137,-0.268C0.137,-0.401 0.199,-0.484 0.307,-0.484Z" style="fill:white;fill-rule:nonzero;"/>
        </g>
        <g transform="matrix(96,0,0,96,1037.47,725.207)">
            <path d="M0.286,-0.236C0.377,-0.218 0.403,-0.191 0.403,-0.142C0.403,-0.091 0.351,-0.056 0.271,-0.056C0.192,-0.056 0.151,-0.085 0.133,-0.143C0.127,-0.162 0.109,-0.17 0.09,-0.17C0.086,-0.17 0.081,-0.169 0.076,-0.168C0.057,-0.164 0.04,-0.15 0.04,-0.13C0.04,-0.126 0.041,-0.122 0.042,-0.117C0.068,-0.028 0.143,0.023 0.271,0.023C0.411,0.023 0.493,-0.048 0.493,-0.144C0.493,-0.249 0.441,-0.287 0.311,-0.314L0.249,-0.327C0.165,-0.345 0.146,-0.365 0.146,-0.411C0.146,-0.453 0.184,-0.486 0.265,-0.486C0.322,-0.486 0.366,-0.463 0.379,-0.418C0.384,-0.399 0.402,-0.391 0.42,-0.391C0.425,-0.391 0.431,-0.392 0.436,-0.393C0.454,-0.398 0.471,-0.411 0.471,-0.43C0.471,-0.434 0.47,-0.438 0.469,-0.442C0.444,-0.515 0.373,-0.562 0.262,-0.562C0.133,-0.562 0.055,-0.5 0.055,-0.409C0.055,-0.314 0.106,-0.271 0.229,-0.247L0.286,-0.236Z" style="fill:white;fill-rule:nonzero;"/>
        </g>
    </g>
    <g transform="matrix(0.949992,0,0,0.949992,-183.199,-270.337)">
        <path d="M459,600.311L422,600.311C407.706,598.759 410,585 410,585L410,491C410.555,476.233 420,465 420,465C406.084,451.789 401.019,436.059 401,436L418,436L395,414C389.13,404.692 391.989,385.074 392,385L412,385L395,368C402.747,321.503 438,302 438,302C442.159,299.731 447,302 447,302C450.511,307.711 447,313 447,313C434.354,346.832 465,376 465,376C476.394,381.884 465,390 465,390C442.921,414.743 454,439 454,439C499.765,421.052 534,439 534,439C533.484,419.674 549.938,419.002 550,419L569,419C581.373,418.231 585,432 585,432C606.294,429.992 619,450.992 619,450.992C640.379,436.302 653.727,442.631 661.455,451.456C667.248,458.125 670.437,466.662 670.437,475.495C670.459,484.645 670.459,499.877 670.459,507.821C670.459,516.103 665.714,523.653 658.251,527.245C655.3,528.651 653.04,528.994 653,529L645,529L645,542C645.072,547.35 639.07,547.993 639,548L626,548C619.42,548.621 619,542 619,542L619,529L579,529L579,587C580.643,597.72 569.087,600.291 569,600.311L532,600.311C521.735,598.834 521,590 521,590L521,571C496.313,578.83 469,571 469,571L469,587C468.809,597.893 459.085,600.29 459,600.311ZM560,581L560,525C536.523,516.493 534,491 534,491L534,462C499.775,439.281 464,458 464,458C479.622,477.196 497,474 497,474L506,502C457.801,502.38 437,480 437,480C430.46,486.42 430,502 430,502L430,581L450,581L450,544C493.692,567.659 541,544 541,544L541,581L560,581ZM566,454L566,440C566,440 565.038,437.839 563,438C560.962,438.161 556.162,438.127 556,438C555.838,437.873 552.597,437.712 553,440L553,485C553,485 552.518,507.233 577,509L651,509L651,473C651,473 649.543,458.231 635,462L608,474C608,474 601.282,439.86 566,454ZM585.5,470C589.087,470 592,472.913 592,476.5C592,480.087 589.087,483 585.5,483C581.913,483 579,480.087 579,476.5C579,472.913 581.913,470 585.5,470ZM552,415C551.607,405.718 540,391 540,391C526.768,381.247 540,375 540,375C572.332,346.858 557,310 557,310C554.325,303.768 557.294,301.992 557.294,301.992C561.007,297.798 567,303 567,303C600.235,320.994 611,368 611,368L594,385L613,385C613.801,395.195 611,413 611,413L594,429C590,427 586,428 586,428C582.008,416.023 567.056,415.004 567,415L552,415Z" style="fill:white;"/>
    </g>
</svg>
